# xmcd CD database file
#
# Track frame offsets:
#	150
#	31387
#	52008
#	75067
#	98806
#	123395
#	162604
#	177531
#	200800
#	223797
#	244314
#	260871
#	285546
#	308843
#
# Disc length: 4416 seconds
#
# Revision: 0
# Processed by: cddbd v1.5PL3 Copyright (c) Steve Scherf et al.
# Submitted via: CDex 1.51
#
DISCID=d3113e0e
DTITLE=Eagles - Lives
DYEAR=1900
DGENRE=Country
TTITLE0=Hotel California
TTITLE1=Heartache Tonight
TTITLE2=I Can't Tell You Why
TTITLE3=The long run
TTITLE4=New Lid in Town
TTITLE5=Life's Been Good
TTITLE6=Seven Bridges Road
TTITLE7=Wasted time
TTITLE8=Take it to the limit
TTITLE9=Desperado
TTITLE10=Saturday night
TTITLE11=All night Long
TTITLE12=Life in the fast lane
TTITLE13=Take it easy
EXTD=
EXTT0=
EXTT1=
EXTT2=
EXTT3=
EXTT4=
EXTT5=
EXTT6=
EXTT7=
EXTT8=
EXTT9=
EXTT10=
EXTT11=
EXTT12=
EXTT13=
PLAYORDER=
